<svg width="50" height="50" viewBox="0 0 50 50" fill="none" xmlns="http://www.w3.org/2000/svg">
<g clip-path="url(#clip0_449_272)">
<path d="M25.0001 45.8334C13.5417 45.8334 4.16675 36.4584 4.16675 25C4.16675 13.5417 13.5417 4.16669 25.0001 4.16669C36.4584 4.16669 45.8334 13.5417 45.8334 25C45.8334 36.4584 36.4584 45.8334 25.0001 45.8334ZM25.0001 6.25002C14.5834 6.25002 6.25008 14.5834 6.25008 25C6.25008 35.4167 14.5834 43.75 25.0001 43.75C35.4167 43.75 43.7501 35.4167 43.7501 25C43.7501 14.5834 35.4167 6.25002 25.0001 6.25002Z" fill="#FF0808"/>
<path d="M24.9999 10.4167C24.3749 10.4167 23.9583 10 23.9583 9.375V1.04167C23.9583 0.416667 24.3749 0 24.9999 0C25.6249 0 26.0416 0.416667 26.0416 1.04167V9.375C26.0416 10 25.6249 10.4167 24.9999 10.4167Z" fill="#FF0808"/>
<path d="M24.9999 10.4167C24.3749 10.4167 23.9583 10 23.9583 9.375V1.04167C23.9583 0.416667 24.3749 0 24.9999 0C25.6249 0 26.0416 0.416667 26.0416 1.04167V9.375C26.0416 10 25.6249 10.4167 24.9999 10.4167Z" fill="#FF0808"/>
<path d="M48.9583 26.0416H40.6249C39.9999 26.0416 39.5833 25.625 39.5833 25C39.5833 24.375 39.9999 23.9583 40.6249 23.9583H48.9583C49.5833 23.9583 49.9999 24.375 49.9999 25C49.9999 25.625 49.5833 26.0416 48.9583 26.0416Z" fill="#FF0808"/>
<path d="M24.9999 50C24.3749 50 23.9583 49.5833 23.9583 48.9583V40.625C23.9583 40 24.3749 39.5833 24.9999 39.5833C25.6249 39.5833 26.0416 40 26.0416 40.625V48.9583C26.0416 49.5833 25.6249 50 24.9999 50Z" fill="#FF0808"/>
<path d="M9.375 26.0416H1.04167C0.416667 26.0416 0 25.625 0 25C0 24.375 0.416667 23.9583 1.04167 23.9583H9.375C10 23.9583 10.4167 24.375 10.4167 25C10.4167 25.625 10 26.0416 9.375 26.0416Z" fill="#FF0808"/>
<path d="M25 31.25C21.4583 31.25 18.75 28.5417 18.75 25C18.75 21.4583 21.4583 18.75 25 18.75C28.5417 18.75 31.25 21.4583 31.25 25C31.25 28.5417 28.5417 31.25 25 31.25ZM25 20.8333C22.7083 20.8333 20.8333 22.7083 20.8333 25C20.8333 27.2917 22.7083 29.1667 25 29.1667C27.2917 29.1667 29.1667 27.2917 29.1667 25C29.1667 22.7083 27.2917 20.8333 25 20.8333Z" fill="#FF0808"/>
</g>
<defs>
<clipPath id="clip0_449_272">
<rect width="50" height="50" fill="white"/>
</clipPath>
</defs>
</svg>
