<?xml version="1.0" encoding="utf-8"?>
<svg xmlns="http://www.w3.org/2000/svg" viewBox="107.6927 78.8458 292.2941 310.7441"><defs><linearGradient id="a" x1="94.91" x2="120.63" y1="58.17" y2="35.61" gradientTransform="translate(213.461548 167.521378)" gradientUnits="userSpaceOnUse"><stop offset="0" stop-color="red"/><stop offset="1" stop-color="#77008f"/></linearGradient><linearGradient id="b" x1="68.94" x2="68.53" y1="79.99" y2="119.05" gradientTransform="translate(213.461548 167.521378)" gradientUnits="userSpaceOnUse"><stop offset="0" stop-color="red"/><stop offset="1" stop-color="#77008f"/></linearGradient><linearGradient id="c" x1="63.01" x2="54.13" y1="31.08" y2="118.04" gradientTransform="translate(213.461548 167.521378)" gradientUnits="userSpaceOnUse"><stop offset="0" stop-color="red"/><stop offset="1" stop-color="#77008f"/></linearGradient></defs><g><path fill="url(#a)" d="M335.988 216.564c-6.99 3.011-31.097 22.435-32.803 27.497-3.69-2.78-4.37-13.295-5.15-17.315 4.59-4.76 32.128-33.515 39.973-39.703 13.839-10.916 3.833 26.999-2.02 29.521Z" class="cls-5" transform="matrix(2.032763 0 0 2.047009 -326.2250061 -264.0711365)"/><path fill="url(#b)" d="M289.858 284.17c-1.81 5.83-15.227 19.244-20.367 21.574-17.17-19.8 21.151-70.253 24.391-73.523 0 0 4.171 11.465 4.301 16.915-2.02 2.03-14.395 24.864-8.325 35.034Z" class="cls-1" transform="matrix(2.032763 0 0 2.047009 -326.2250061 -264.0711365)"/><path fill="url(#c)" d="M316.295 254.401c10.299 50.483-28.888 77.321-47.936 49.963l21.499-20.204c6.53 10.33 10.994-6.089 9.934-14.619.11-10.19-3.89-18.18-3.89-18.18s-.04.05-.11.14c-2.04-4.66-4.64-8.74-7.3-12.18-.49-1.77-12.42-12.95-12.93-12.7-9.37-8.55-29.683-19.704-41.354-25.26-16.772-9.566-3.751-29.221 10.568-25.012 2.977.467 61.919 30.995 71.519 78.052Z" class="cls-4" transform="matrix(2.032763 0 0 2.047009 -326.2250061 -264.0711365)"/></g></svg>
