<?xml version="1.0" standalone="no"?>
<!DOCTYPE svg PUBLIC "-//W3C//DTD SVG 20010904//EN"
 "http://www.w3.org/TR/2001/REC-SVG-20010904/DTD/svg10.dtd">
<svg version="1.0" xmlns="http://www.w3.org/2000/svg"
 width="838.000000pt" height="810.000000pt" viewBox="0 0 838.000000 810.000000"
 preserveAspectRatio="xMidYMid meet">

<g transform="translate(0.000000,810.000000) scale(0.100000,-0.100000)"
fill="#000000" stroke="none">
<path d="M2333 5752 c-84 -48 -158 -93 -164 -99 -9 -9 -4 -44 21 -140 18 -70
37 -134 43 -140 5 -8 32 -13 64 -13 l54 0 -7 -50 c-5 -41 -4 -51 10 -56 21 -8
44 11 61 54 20 45 36 37 56 -28 18 -61 39 -81 67 -64 23 15 27 56 7 94 -9 17
-13 35 -10 40 3 6 50 10 103 10 53 0 102 4 108 8 11 7 43 107 63 197 7 31 8
75 4 115 l-8 65 -39 3 c-21 2 -43 -1 -49 -7 -20 -20 -43 -12 -128 44 -46 30
-88 55 -94 55 -5 0 -79 -40 -162 -88z m258 -32 c71 -49 102 -60 114 -40 10 16
45 12 52 -6 11 -30 -14 -37 -131 -38 -88 -1 -117 2 -121 12 -11 29 -3 122 10
122 2 0 36 -22 76 -50z m-141 -29 l0 -48 -97 -6 c-53 -3 -101 -3 -106 0 -9 5
169 101 191 102 8 1 12 -15 12 -48z m278 -125 c5 -26 -17 -119 -31 -128 -17
-11 -379 -10 -396 1 -15 10 -40 88 -41 127 0 21 2 21 233 18 204 -2 232 -4
235 -18z"/>
<path d="M2290 5500 c0 -5 5 -10 10 -10 6 0 10 5 10 10 0 6 -4 10 -10 10 -5 0
-10 -4 -10 -10z"/>
<path d="M3515 5635 c-5 -2 -22 -6 -36 -9 -23 -5 -36 -28 -109 -192 -45 -102
-86 -212 -93 -245 -38 -209 199 -352 353 -213 70 64 76 85 131 489 10 77 19
148 19 158 0 15 -12 17 -127 16 -71 0 -132 -2 -138 -4z"/>
<path d="M4677 5627 c-1 -5 14 -128 35 -274 32 -226 41 -272 64 -314 65 -118
216 -152 322 -72 42 32 62 64 78 122 19 73 2 139 -81 326 -69 154 -96 206
-107 210 -26 8 -308 10 -311 2z"/>
<path d="M4076 5622 c-2 -4 -19 -100 -36 -212 -34 -218 -34 -271 -1 -345 10
-22 28 -49 40 -59 11 -11 21 -24 21 -30 0 -6 -36 -28 -80 -49 -174 -82 -256
-214 -304 -489 l-7 -38 -184 0 -184 0 -20 -26 c-19 -24 -21 -40 -21 -178 0
-133 2 -155 20 -184 11 -18 30 -36 43 -41 26 -10 21 12 62 -316 67 -540 71
-557 146 -596 38 -19 56 -20 652 -17 l614 3 37 29 c52 40 65 77 86 250 40 327
71 573 76 604 5 25 14 36 39 47 46 18 55 57 55 231 0 199 13 188 -222 194
l-183 5 -8 45 c-46 256 -131 393 -292 476 -41 20 -75 39 -75 42 0 2 13 21 29
41 65 83 77 144 56 279 -8 53 -22 144 -30 202 -9 58 -18 113 -21 123 -5 15
-21 17 -154 17 -82 0 -151 -4 -154 -8z m261 -769 c101 -46 175 -124 219 -234
24 -60 46 -182 37 -206 -4 -10 -89 -13 -379 -13 l-374 0 0 43 c1 192 131 376
299 424 56 16 146 9 198 -14z m-181 -766 c32 -34 34 -41 34 -104 0 -67 -23
-147 -100 -350 -13 -35 -21 -65 -17 -69 15 -15 66 11 112 59 28 29 77 93 109
142 51 76 83 137 179 335 23 45 107 35 107 -14 0 -24 -5 -42 -101 -350 -33
-104 -59 -194 -59 -199 0 -5 25 -8 58 -5 44 3 67 11 96 33 31 23 39 26 47 14
30 -48 -40 -103 -148 -115 -85 -10 -100 -18 -127 -72 -43 -86 -147 -160 -206
-147 -39 8 -64 38 -55 65 10 33 70 94 124 129 26 17 54 43 61 59 25 54 80 193
80 203 0 6 -19 -13 -42 -43 -102 -128 -190 -190 -274 -192 -58 -1 -84 24 -84
79 0 40 20 103 106 332 48 130 44 163 -21 163 -72 0 -152 -160 -115 -230 7
-13 5 -21 -6 -31 -22 -18 -64 6 -87 51 -46 88 25 235 138 287 18 8 55 12 94
10 59 -3 66 -6 97 -40z"/>
<path d="M5835 4739 c-76 -22 -135 -118 -121 -194 21 -108 154 -177 249 -129
70 36 107 88 107 153 0 124 -113 206 -235 170z"/>
<path d="M2462 4473 c-7 -3 -18 -16 -23 -30 -22 -59 59 -102 95 -51 21 30 20
44 -4 68 -20 20 -42 24 -68 13z"/>
<path d="M2445 4245 c-5 -2 -27 -6 -47 -10 -104 -17 -85 -101 58 -264 29 -32
34 -34 57 -24 14 7 44 28 65 48 103 92 95 214 -14 244 -37 10 -97 13 -119 6z
m105 -80 c27 -25 25 -67 -6 -104 -34 -40 -48 -39 -78 7 -14 20 -34 48 -45 62
-39 47 -25 61 56 56 33 -1 60 -9 73 -21z"/>
<path d="M5928 3920 c-42 -23 -88 -92 -88 -134 0 -45 30 -96 72 -122 32 -20
38 -30 38 -58 0 -19 7 -39 16 -47 14 -12 19 -10 38 14 13 16 32 27 46 27 56 0
115 64 126 137 21 139 -126 247 -248 183z m114 -77 c34 -32 36 -70 7 -107 -41
-52 -126 -26 -144 45 -5 19 0 34 20 57 35 41 77 43 117 5z"/>
<path d="M2313 3240 c-13 -5 -33 -33 -48 -64 -25 -53 -95 -126 -120 -126 -7 0
-19 -8 -28 -18 -15 -16 -17 -45 -17 -201 0 -107 4 -190 10 -202 10 -18 24 -19
278 -19 147 0 272 4 278 8 8 4 16 83 22 227 6 121 14 236 17 256 6 30 3 40
-16 58 -21 19 -34 21 -142 21 l-120 0 -38 35 c-42 38 -43 38 -76 25z m52 -60
c8 -26 -1 -40 -26 -40 -22 0 -34 22 -25 45 8 22 44 18 51 -5z m286 -57 c20
-20 -1 -51 -70 -101 -94 -68 -105 -74 -154 -70 l-42 3 -3 87 -3 87 38 4 c67 8
223 1 234 -10z m-321 -94 l0 -79 -84 0 c-124 0 -124 22 4 118 36 27 68 48 73
45 4 -2 7 -40 7 -84z m308 -67 c3 -16 -2 -22 -17 -22 -28 0 -51 -27 -51 -60 0
-16 -6 -33 -14 -37 -10 -6 -15 -32 -18 -86 -1 -42 0 -77 4 -77 4 0 13 9 22 21
9 14 21 19 33 15 17 -5 18 2 18 101 0 80 3 107 13 111 11 3 13 -19 11 -119 -1
-68 -5 -130 -7 -136 -3 -8 -24 -13 -58 -13 l-54 0 0 133 0 133 42 32 c47 36
71 38 76 4z m-170 -93 l3 -36 -142 -6 c-149 -6 -179 -1 -179 33 0 50 2 51 164
48 l151 -3 3 -36z m-138 -148 l0 -58 -66 -6 c-106 -8 -113 -3 -106 76 l4 47
84 0 84 0 0 -59z m140 -2 l0 -60 -47 3 -48 3 -3 44 c-5 64 1 71 53 71 l45 0 0
-61z"/>
<path d="M2421 2871 c-11 -7 -10 -11 6 -20 22 -11 33 -6 33 16 0 15 -18 17
-39 4z"/>
<path d="M5726 2998 c-13 -18 -16 -50 -15 -173 1 -207 -2 -199 89 -205 41 -3
99 -14 128 -24 45 -16 73 -18 169 -13 65 3 120 10 127 17 7 7 10 46 9 104 -2
99 -30 195 -74 257 -25 35 -32 32 -57 -24 -10 -23 -26 -48 -36 -56 -14 -12
-20 -11 -40 8 -29 28 -33 23 -89 -102 -24 -53 -49 -103 -56 -111 -16 -20 -84
-21 -100 -3 -6 8 -12 77 -13 177 -3 170 -10 194 -42 148z m438 -178 c9 -24 16
-69 16 -110 0 -68 -1 -70 -25 -70 -21 0 -25 5 -25 30 0 36 -24 96 -48 123 -16
18 -15 20 13 43 41 33 50 30 69 -16z m-115 -82 c17 -23 31 -54 31 -70 0 -28 0
-28 -65 -28 l-65 0 0 31 c0 36 38 109 56 109 7 0 26 -19 43 -42z"/>
<path d="M3139 2694 c-9 -11 -10 -20 -2 -32 9 -16 93 -17 1059 -20 577 -1
1059 0 1072 3 26 6 31 49 6 59 -9 3 -489 6 -1069 6 -948 0 -1054 -2 -1066 -16z"/>
<path d="M3307 2368 c-2 -7 2 -22 9 -33 21 -33 114 -316 114 -349 0 -16 -5
-44 -12 -62 -14 -40 1 -64 41 -64 45 0 54 13 48 66 -5 43 1 66 54 199 33 83
71 167 86 187 21 31 23 41 13 53 -15 18 -76 20 -87 3 -8 -12 -52 -127 -75
-196 -6 -18 -16 -31 -22 -29 -11 4 -66 162 -66 192 0 12 -5 26 -12 33 -16 16
-85 15 -91 0z"/>
<path d="M3652 2218 c-15 -15 -16 -213 -1 -273 27 -106 120 -126 172 -37 15
25 21 63 27 155 8 133 3 147 -47 147 -23 0 -23 -2 -23 -102 0 -145 -20 -207
-56 -177 -13 11 -15 36 -13 144 2 72 0 136 -5 143 -9 15 -38 16 -54 0z"/>
<path d="M4609 2174 c-30 -52 -33 -55 -46 -39 -7 11 -13 28 -13 40 0 27 -18
45 -45 45 -38 0 -45 -19 -25 -59 11 -20 24 -56 31 -81 11 -42 10 -49 -15 -95
-14 -28 -32 -57 -38 -67 -9 -13 -9 -20 1 -32 24 -29 46 -18 71 34 13 28 28 49
34 47 6 -2 18 -23 26 -48 8 -24 19 -50 23 -56 11 -18 42 -16 57 2 10 12 5 30
-30 97 l-43 81 19 36 c11 19 34 55 52 78 36 49 39 58 16 67 -32 12 -43 5 -75
-50z"/>
<path d="M3907 2213 c-4 -3 -7 -81 -7 -173 0 -149 2 -169 18 -183 10 -10 24
-17 30 -17 14 0 43 41 36 51 -13 22 69 205 87 193 5 -3 9 -43 9 -89 0 -46 3
-90 6 -99 7 -19 57 -21 71 -3 13 16 0 266 -16 295 -22 41 -76 20 -122 -48 -16
-24 -29 -47 -29 -52 0 -4 -5 -8 -11 -8 -6 0 -9 24 -8 61 2 43 -2 63 -12 70
-17 10 -43 12 -52 2z"/>
<path d="M4259 2205 c-34 -19 -51 -57 -56 -135 -6 -77 9 -139 41 -177 20 -23
33 -28 69 -28 55 0 80 20 101 83 30 88 11 224 -37 257 -27 19 -84 19 -118 0z
m91 -54 c15 -28 12 -156 -4 -195 -19 -46 -35 -54 -58 -26 -24 30 -25 156 -2
206 18 38 47 45 64 15z"/>
<path d="M4840 2206 c-82 -23 -116 -51 -105 -86 9 -27 27 -25 64 6 40 33 84
46 106 30 33 -24 13 -50 -70 -91 -91 -46 -120 -84 -111 -144 12 -82 84 -97
159 -31 49 43 57 47 57 27 0 -18 32 -47 53 -47 22 0 38 30 26 51 -5 10 -11 57
-15 106 -12 185 -39 213 -164 179z m80 -174 c0 -49 -93 -135 -119 -109 -26 26
5 74 74 110 39 21 45 21 45 -1z"/>
</g>
</svg>
